# xmcd
#
# Track frame offsets:
#	150
#	30789
#	66347
#	92690
#	108328
#	131862
#	147653
#	159193
#
# Disc length: 2436 seconds
# Revision: 0
# Processed by: cddbd v1.5.2PL0 Copyright (c) Steve Scherf et al.
# Submitted via: dBpowerAMP V12.0
#
DISCID=67098208
DTITLE=Roland van Campenhout - Dah bluez iz-a-comming
DYEAR=2012
DGENRE=Blues
TTITLE0=Black Girl
TTITLE1=Going Down Slow
TTITLE2=The Truth
TTITLE3=There's A Man Goin' Round
TTITLE4=Eyesight To The Blind
TTITLE5=Second Night In New York City
TTITLE6=Blue Azul
TTITLE7=Kosher Karma Sutra
EXTD=
EXTT0=
EXTT1=
EXTT2=
EXTT3=
EXTT4=
EXTT5=
EXTT6=
EXTT7=
PLAYORDER=
